# xmcd CD database file
#
# Track frame offsets:
#	150
#	18975
#	44850
#	65850
#	84075
#	106575
#	130725
#	156975
#	173625
#	194775
#	215100
#	235425
#	256500
#	279300
#	307050
#	330750
#
# Disc length: 4792 seconds
#
# Revision: 1
# Processed by: cddbd v1.5.1PL2 Copyright (c) Steve Scherf et al.
# Submitted via: freeDBTagger 0.5
#
DISCID=e012b610
DTITLE=KOKIA - Pearl ~The Best Collection~
DYEAR=2006
DGENRE=blues
TTITLE0=The Power of Smile
TTITLE1=愛のメロディー(Original Version)
TTITLE2=dandelion
TTITLE3=幸せの花束
TTITLE4=かわらないこと～since 1976～
TTITLE5=私の太陽
TTITLE6=Remember the kiss ~a wish~
TTITLE7=DESPERADO
TTITLE8=夢がチカラ-Brave warrior
TTITLE9=歌う人
TTITLE10=time to say goodbye
TTITLE11=調和 oto～with reflection～
TTITLE12=so much love for you
TTITLE13=I believe～海の底から～
TTITLE14=ありがとう…（the pearl edition)
TTITLE15=The Power of Smile ~a gentle breeze~
EXTD=
EXTT0=
EXTT1=
EXTT2=
EXTT3=
EXTT4=
EXTT5=
EXTT6=
EXTT7=
EXTT8=
EXTT9=
EXTT10=
EXTT11=
EXTT12=
EXTT13=
EXTT14=
EXTT15=
PLAYORDER=
